<?xml version="1.0" encoding="utf-8"?>
<!-- Generator: Adobe Illustrator 25.2.1, SVG Export Plug-In . SVG Version: 6.00 Build 0)  -->
<svg version="1.1" id="Head_Back" xmlns="http://www.w3.org/2000/svg" xmlns:xlink="http://www.w3.org/1999/xlink" x="0px" y="0px"
	 viewBox="0 0 2000 2000" style="enable-background:new 0 0 2000 2000;" xml:space="preserve">
<path class="head" d="M1765.1,915.1l-23.8-27.8c0,0,17.5-128.9-66.3-338.5c-50.2-125.7-89.2-197.7-298.9-342.8
	C1240.4,112,1089.6,97.8,1000,99.4C910.4,97.8,759.6,112,623.9,206C414.3,351.2,375.2,423.2,325,548.8
	c-83.8,209.6-66.3,338.5-66.3,338.5l-23.8,27.8c-25.3,29.5-33.3,70-21.2,107l83.1,253.3c13.1,39.9,47.5,69,89,75.2l27.3,4.1
	l106.3,274.5c4.1,10.7,6.1,22.1,5.7,33.6l-3.2,99.9c-0.9,29.4,17.3,56,45.1,65.7l32.6,11.4c73.3,25.6,150.3,38.6,227.9,38.6h92.8
	h159.2h92.8c77.6,0,154.6-13.1,227.9-38.6l32.6-11.4c27.8-9.7,46-36.3,45.1-65.7l-3.2-99.9c-0.4-11.5,1.6-22.9,5.7-33.6l106.3-274.5
	l27.3-4.1c41.5-6.3,75.9-35.4,89-75.2l83.1-253.3C1798.4,985.2,1790.3,944.6,1765.1,915.1z"/>
<path class="head-zone-7" d="M971.7,1057.6c-253.8,0-397.8-111-427.3-328.8c0-2.2-1.2-5.4-1.2-7.5C654.1,840.9,821.7,911,1000,911
	s345.9-70.1,456.8-190.8c0,2.2,0,4.3-1.2,6.5c-30.7,219.9-174.7,330.9-428.5,330.9c-8.3,0-17.7,0-27.2,0h-1.2
	C989.4,1056.5,981.1,1057.6,971.7,1057.6z"/>
<path class="head-zone-4" d="M445.8,452.9c-14.2-19.4-30.7-34.5-47.2-45.3C580.3,106.9,919.1,91.8,985.2,91.8c8.3,0,13,0,14.2,0h1.2
	c1.2,0,5.9,0,14.2,0c66.1,0,404.9,15.1,586.7,316.9c-16.5,10.8-31.9,25.9-47.2,44.2c-109.8-162.8-319.9-263-553.7-263
	C766.9,188.8,555.5,290.1,445.8,452.9z"/>
<path class="head-zone-5" d="M1000,889.4c-185.3,0-358.9-79.8-463.9-212.3c-16.5-83-42.5-154.1-75.6-204.8C564.4,310.6,771,210.3,1000,210.3
	s435.6,100.2,539.5,261.9c-33.1,50.7-59,120.7-75.6,204.8C1358.9,809.6,1185.3,889.4,1000,889.4z M1000,290.1
	c-165.3,0-298.7,117.5-298.7,260.8S835.9,811.8,1000,811.8s298.7-117.5,298.7-260.8S1164.1,290.1,1000,290.1z"/>
<path class="head" d="M1638.9,413c0,0-70.2,28.7-102,121.9c-11.9,34.9-34.4,86.9-46.5,166.7c-23.9,157.1-85.5,299.9-217.9,344.7
	c-103.6,35-200.4,46.1-272.4,48.2c-72-2.1-168.9-13.2-272.4-48.2C595.7,1001.6,530,869.4,514.8,705.4c-7.5-81-39.6-135.4-51.7-170.6
	c-31.8-93.2-102-121.9-102-121.9c-62.1,19.1-149.7,307.2-129,432.5c7.9,47.9,120.9,412.1,158.7,522.6c7.4,21.6,21.2,40.3,39.7,53.8
	c28.4,20.6,80.1,56,164.8,107c99.7,60.1,293,68.1,404.7,67.2c111.7,0.9,305-7.1,404.7-67.2c84.7-51.1,136.4-86.4,164.8-107
	c18.5-13.4,32.3-32.1,39.7-53.8c37.8-110.5,150.8-474.7,158.7-522.6C1788.6,720.2,1701,432.1,1638.9,413z"/>
<path class="head-zone-6" d="M1000,791.3c-151.1,0-275.1-107.8-275.1-239.3c0-132.6,124-239.3,275.1-239.3s275.1,107.8,275.1,239.3
	C1275.1,683.5,1151.1,791.3,1000,791.3z"/>
</svg>
