<?xml version="1.0" encoding="utf-8"?>
<!-- Generator: Adobe Illustrator 25.2.1, SVG Export Plug-In . SVG Version: 6.00 Build 0)  -->
<svg version="1.1" id="Layer_1" xmlns="http://www.w3.org/2000/svg" xmlns:xlink="http://www.w3.org/1999/xlink" x="0px" y="0px"
	 viewBox="0 0 2000 2000" style="enable-background:new 0 0 2000 2000;" xml:space="preserve">
<style type="text/css">
	.sculp{fill:#E6E6E6;}
	.sculp-zone-1{fill:#D746FF;}
	.sculp-zone-2{fill:#FF8C00;}
	.sculp-zone-3{fill:#00EE16;}
	.sculp-zone-4{fill:#5E76FF;}
	.sculp-zone-5{fill:#FBC82D;}
	.sculp-zone-6{fill:#FF3B59;}
	.sculp-zone-7{fill:#1DE5EF;}
</style>
<path class="sculp" d="M391.7,439c0,0-38.2,49-64.4,153.8c-40.7,162.7-38.7,230.1-38.7,230.1c-6.5,12.6-7.8,27.3-3.7,40.9l5.7,18.8
	l43,69.9c8,13,5.7,29.7-5.4,40.1l-14.3,13.3c-11.7,11-21.8,23.7-29.7,37.6c0,0-75.8,129.6-97.6,149.7c-31.1,28.7-22.9,91,24.7,110.7
	c47.7,19.7,72.5,13.9,97.1,37.3l30,32.2l-29.1,50.7c-14,24.5-5.7,55.7,18.7,69.9l29.3,17.1l-9.8,7.2c-7.1,5.2-11.3,13.5-11.3,22.4
	v27l67.7,62.2l-15.8,81.3c-14.3,73.6,42.1,141.9,117,141.9l153.1-10.2c25.9-1.7,51.3-7.8,75.2-17.9l83.5-35.2l38.9,61.5
	c24.1,38.2,71.2,55,114.1,40.7l600.9-200.3c52.4-17.5,80.1-74.6,61.3-126.6l-45.6-126c-14.8-33.6-19.9-70.7-14.6-107
	c6.8-46.8,24-111.3,66.7-166.4c91.1-117.5,122.2-287.6,115.2-453.9c-1.3-30.2-6.8-60-15.8-88.8l0,0
	C1557.6,45.9,802.9-90.4,432,387.1L391.7,439z"/>
<path class="sculp-zone-1" d="M775.4,525.5L775.4,525.5c-18.4-29.1-43.6-52.4-73.7-67.9c-28.1-15.5-57.2-22.3-88.3-22.3
	c-7.8,0-16.5,1-24.2,1.9c33.9-8.7,71.8-16.5,114.4-16.5c37.8,0,74.7,6.8,111.5,19.4c16.5,5.8,32,13.6,45.6,21.3l0,0
	C830.7,480.9,801.6,502.2,775.4,525.5z"/>
<path class="sculp-zone-3" d="M478.6,347c-3.9,0-12.4-0.7-16.2-1.7c96-117.3,238.8-201.2,395.9-236.2L948,345.1c-17.5-15.5-41.7-32-74.7-46.6
	c-27.2-11.6-55.3-17.5-88.3-17.5c-60.1,0-123.2,19.4-178.4,36.9C558.2,333.5,513.6,347,478.6,347L478.6,347z"/>
<path class="sculp-zone-2" d="M880.1,449.8c-16.5-11.6-35.9-20.4-57.2-28.1c-39.8-14.5-78.6-21.3-118.3-21.3c-50.4,0-92.1,10.7-130,19.4
	c-27.2,6.8-50.4,12.6-70.8,12.6c-22.3,0-49.8-9-70.2-51.6l15.5-20.4c7.8,1.9,19.8,6,29.5,6l0,0c38.8,0,84.4-14.5,132.9-30.1
	c57.2-17.5,115.4-36.9,172.6-36.9c30.1,0,56.2,4.8,80.5,15.5c67.9,30.1,93.1,64,105.7,90.2C939.3,418.8,909.2,433.4,880.1,449.8z"/>
<path class="sculp-zone-7" d="M1716.4,564.3c-64-71.8-162.2-123.2-256.3-159.1l0,0c47.5-7.8,93.9-26.3,136.6-49.6
	C1596.7,355.6,1697.5,476.3,1716.4,564.3z"/>
<path class="sculp-zone-5" d="M1417.4,390.7c-65-19.4-132.9-30.1-201.7-30.1c-28.1,0-57.2,1.9-85.3,4.8l0,0l-13.5-268.1
	c18.4,1.9,37.7,5.1,55.2,9c9.7,111.5,101.9,199,215.3,199c43.6,0,85.3-12.6,121.2-37.8l0,0c27.2,23.3,53.7,47,76,74.1l-2.3,1.5
	C1530.9,371.3,1475.6,386.8,1417.4,390.7z"/>
<path class="sculp-zone-4" d="M877.2,105.2c48.5-9.7,98.2-13.9,147.6-13.9c23.3,0,48.5,0.9,72.8,3.8l13.4,274.2
	c-41.7,6.8-82.4,16.5-122.2,30.1L877.2,105.2z"/>
<path class="sculp" d="M1761.7,671.5c-0.7-17.4-7-34.1-18-47.6c-46-56.8-189.8-203.5-469-234.8C1024,360.9,871,469.7,805,532.8
	c-24,22.9-32,57.8-20,88.7l45.2,116.3c3.2,8.3,5.1,17.1,5.5,26l7.7,179c1.9,43.6,37.8,77.9,81.4,77.9h56.6c5.6,0,11.2-0.6,16.7-1.7
	c11.3-2.4,33.2-6.9,58.4-11.4c-1.8-3.8-4.1-7.4-7.2-10.7l-21.7-23.8c-8-8.7-12-20.3-11.1-32.1l5.7-75.6c0.7-9.8,4.8-19,11.5-26.1
	l36.5-38.8c19.7-20.9,47.2-32.8,75.9-32.8c34.8,0,67.3,17.3,86.6,46.2l33,49.2c27.9,41.6,38.3,92.4,29.2,141.7l-11.5,61.9
	c-0.5,2.5-1,5-1.6,7.5c48,46.4,95.2,99.8,115.3,123c6.8,7.8,14.9,14.2,24.1,19l47.5,24.6c19.7,10.2,42.7,12,63.7,4.8
	c34.4-11.8,85.5-31.2,104-48.6c28.9-27.2,34.4-22.8,88.3-146.3C1769,949.5,1764.7,743,1761.7,671.5z"/>
<path class="sculp-zone-6" d="M1386.4,285c-100.9,0-184.3-75.6-194.9-174.6l0,0c111.5,24.2,215.3,73.7,300.6,143.5
	C1461.1,274.3,1424.2,285,1386.4,285z"/>
</svg>
