<?xml version="1.0" encoding="utf-8"?>
<!-- Generator: Adobe Illustrator 25.2.1, SVG Export Plug-In . SVG Version: 6.00 Build 0)  -->
<svg version="1.1" id="Layer_1" xmlns="http://www.w3.org/2000/svg" xmlns:xlink="http://www.w3.org/1999/xlink" x="0px" y="0px"
	 viewBox="0 0 2000 2000" style="enable-background:new 0 0 2000 2000;" xml:space="preserve">
<style type="text/css">
	.sculp{fill:#E6E6E6;}
	.sculp-zone-1{fill:#D746FF;}
	.sculp-zone-2{fill:#FF8C00;}
	.sculp-zone-3{fill:#00EE16;}
	.sculp-zone-4{fill:#5E76FF;}
	.sculp-zone-5{fill:#FBC82D;}
	.sculp-zone-6{fill:#FF3B59;}
	.sculp-zone-7{fill:#1DE5EF;}
</style>
<path class="sculp" d="M1708.4,718.3c-40-329-341.8-584.9-708.4-584.9c-366.6,0-668.4,255.8-708.4,584.9c-25,5.3-43.1,28.8-40.3,55.3
	L264,897.9c2.3,22.9,19.6,40.9,41.7,45c16.4,64.6,43,125.6,78.2,181.4c1.2,5.9,2.6,11.8,4.4,17.6l105.5,342.1
	c16.5,53.4,56.9,96.1,109.4,115.4l204.2,75.1l7.3,26c9.8,34.8,36.4,62.3,70.8,73.3c7.8,2.5,14.4,7.9,18.3,15.2l23.2,42.8
	c31.4,57.9,114.5,57.9,145.9,0l23.2-42.8c3.9-7.2,10.5-12.7,18.3-15.2h0c34.4-11,61-38.5,70.8-73.3l5.5-19.4l208.5-80.9
	c51.1-19.8,90.2-61.9,106.4-114.2l106.1-344c1.8-5.9,3.2-11.7,4.4-17.6c35.2-55.8,61.8-116.8,78.2-181.4c22.1-4.1,39.3-22.1,41.7-45
	l12.8-124.3C1751.5,747,1733.4,723.5,1708.4,718.3z"/>
<path class="sculp-zone-4" d="M548.5,826.4c22.6,7.5,47.4,10.8,71.1,10.8h761.8c23.7,0,47.4-3.2,71.1-10.8v191.8
	c-100.2-67.9-215.5-103.4-337.3-103.4H884.7c-120.7,0-237,35.6-337.3,103.4V826.4H548.5z"/>
<path class="sculp-zone-7" d="M1421.3,265c-102.8-70.7-269.9-87.5-391.7-87.5h-60.3c-121.8,0-286.5,16.9-390.6,87.5
	C680.2,172.7,861,133.4,1000,133.4S1319.8,172.7,1421.3,265z"/>
<path class="sculp-zone-5" d="M619.1,816.7c-23.7,0-48.5-4.3-71.1-11.9V589.3c0-37.3,4.6-107.6,13.9-164.2c8-49,30.2-95.1,66-129.5
	c84.5-81.1,208.6-93.1,341.4-93.1h60.3c135.6,0,262.2,12.6,347.4,99.1c32.1,32.6,52.6,75,60.3,120.2c9.8,57.3,14.7,130.4,14.7,168.6
	v214.4c-22.6,8.6-47.4,11.9-71.1,11.9C1380.9,816.7,619.1,816.7,619.1,816.7z M1002.7,232.7c-148.7,0-269.4,112.1-269.4,250
	s120.7,250,269.4,250s269.4-112.1,269.4-250S1151.4,232.7,1002.7,232.7z"/>
<path class="sculp-zone-2" d="M1280.7,961.1l-128.2,190.7c-79.7,118.5-214.4,119.6-294.2,1.1L726.9,958.9c-61.4,17.2-119.6,45.3-172.4,81.9
	l252.1,269.4c51.7,55,120.7,84,195,84l0,0c75.4,0,145.5-30.2,196.1-86.2l247.8-267.2C1396,1005.2,1338.9,978.3,1280.7,961.1z"/>
<path class="sculp-zone-3" d="M1000.5,1216.4c-49.6,0-97-28-131.5-79.7l-122.8-181c46.3-11.9,92.7-18.3,141.2-18.3h219.8
	c49.6,0,99.1,6.5,146.5,19.4L1132,1135.6C1097.5,1187.3,1051.2,1216.4,1000.5,1216.4L1000.5,1216.4z"/>
<g>
	<path class="sculp-zone-1" d="M1453.6,1064.5c6.5,46.3,26.9,87.3,58.2,115.3c-7.5,0-15.1,0-22.6,0c-63.6,0-125,11.9-174.6,34.5
		L1453.6,1064.5z"/>
	<path class="sculp-zone-1" d="M687.5,1214.3c-50.6-22.6-113.1-34.5-176.7-34.5c-7.5,0-15.1,0-22.6,0c31.2-28,52.8-69,58.2-115.3
		L687.5,1214.3z"/>
</g>
<g>
	<path class="sculp" d="M1459.1,259.7c0,0-10.9,75.1,16.8,160.7c27.6,85.6,29.4,289.7,25.9,406.8c-3.5,117.1-34.6,241.3,53.6,321.9
		c88.1,80.6,77.8,5,98.5-38.6c13.7-28.8,33.4-73.7,45.2-100.9c6.4-14.7,8.5-30.9,6.1-46.7c-8.5-56-24.3-198.2,19.5-268.7
		C1780,605,1513.2,191.3,1459.1,259.7z"/>
	<path class="sculp" d="M540.9,259.7c0,0,10.9,75.1-16.8,160.7c-27.6,85.6-29.4,289.7-25.9,406.8c3.5,117.1,34.6,241.3-53.6,321.9
		c-88.1,80.6-77.8,5-98.5-38.6c-13.7-28.8-33.4-73.7-45.2-100.9c-6.4-14.7-8.5-30.9-6.1-46.7c8.5-56,24.3-198.2-19.5-268.7
		C220,605,486.8,191.3,540.9,259.7z"/>
</g>
<path class="sculp-zone-6" d="M1000,711.1c-134.7,0-245.7-103.4-245.7-229.5c0-127.1,109.9-229.5,245.7-229.5
	c134.7,0,245.7,103.4,245.7,229.5C1244.6,608.7,1134.7,711.1,1000,711.1z"/>
</svg>
